<svg width="27" height="26" viewBox="0 0 27 26" fill="none" xmlns="http://www.w3.org/2000/svg">
<path d="M8.896 15.4375C8.896 17.5175 10.6077 19.2292 12.6877 19.2292C14.7677 19.2292 16.4793 17.5175 16.4793 15.4375" stroke="white" stroke-width="2" stroke-miterlimit="10" stroke-linecap="round" stroke-linejoin="round"/>
<path d="M9.23172 2.16669L5.31006 6.09919" stroke="white" stroke-width="2" stroke-miterlimit="10" stroke-linecap="round" stroke-linejoin="round"/>
<path d="M16.1436 2.16669L20.0652 6.09919" stroke="white" stroke-width="2" stroke-miterlimit="10" stroke-linecap="round" stroke-linejoin="round"/>
<path d="M1.854 8.50419C1.854 6.50002 2.9265 6.33752 4.259 6.33752H21.1157C22.4482 6.33752 23.5207 6.50002 23.5207 8.50419C23.5207 10.8334 22.4482 10.6709 21.1157 10.6709H4.259C2.9265 10.6709 1.854 10.8334 1.854 8.50419Z" stroke="white" stroke-width="2"/>
<path d="M3.479 10.8333L5.0065 20.1933C5.35317 22.295 6.18734 23.8333 9.28567 23.8333H15.8182C19.1873 23.8333 19.6857 22.36 20.0757 20.3233L21.8957 10.8333" stroke="white" stroke-width="2" stroke-linecap="round"/>
</svg>
