<svg width="62" height="62" viewBox="0 0 62 62" fill="none" xmlns="http://www.w3.org/2000/svg">
<circle cx="31" cy="31" r="31" fill="#7545B8"/>
<g clip-path="url(#clip0_6_265)">
<path d="M41.555 30.0624C41.544 30.0624 41.533 30.0624 41.511 30.0624C41.2031 30.0409 40.9832 29.7834 41.0052 29.4938C41.0272 29.1826 41.0382 28.8608 41.0272 28.5497C40.8953 23.1103 36.2555 18.7867 30.6812 18.9154C30.3843 18.9261 30.1204 18.6901 30.1204 18.3897C30.1094 18.0893 30.3513 17.8426 30.6592 17.8426C36.8492 17.7031 41.9838 22.4988 42.1267 28.5282C42.1377 28.8715 42.1267 29.2256 42.1047 29.5796C42.0827 29.8478 41.8408 30.0624 41.555 30.0624ZM38.6963 28.8822C38.6853 28.8822 38.6743 28.8822 38.6743 28.8822C38.3665 28.8715 38.1356 28.614 38.1466 28.3244C38.1466 28.2278 38.1576 28.1205 38.1576 28.024C38.1576 26.3288 37.4759 24.741 36.2555 23.5502C35.0351 22.3593 33.4079 21.7048 31.6707 21.7048C31.6707 21.7048 31.6707 21.7048 31.6597 21.7048C31.3518 21.7048 31.1099 21.4688 31.1099 21.1684C31.1099 20.868 31.3518 20.632 31.6597 20.632H31.6707C33.6937 20.632 35.5958 21.4044 37.0251 22.7992C38.4544 24.1939 39.2461 26.0499 39.2571 28.0347C39.2571 28.1527 39.2571 28.2707 39.2461 28.3887C39.2351 28.6569 38.9932 28.8822 38.6963 28.8822ZM35.8377 27.9167C35.8267 27.9167 35.8267 27.9167 35.8157 27.9167C35.5079 27.9059 35.277 27.6592 35.288 27.3588C35.288 27.2944 35.288 27.2408 35.288 27.1764C35.266 26.4576 34.9581 25.7924 34.4194 25.3096C33.8806 24.8268 33.177 24.5694 32.4513 24.5908C32.1435 24.6015 31.8906 24.3655 31.8796 24.0759C31.8686 23.7862 32.1105 23.5287 32.4073 23.518C33.4298 23.4858 34.4194 23.8398 35.167 24.5264C35.9147 25.2131 36.3544 26.1357 36.3874 27.1442C36.3874 27.23 36.3874 27.3159 36.3874 27.4017C36.3764 27.6914 36.1346 27.9167 35.8377 27.9167Z" fill="white"/>
<path fill-rule="evenodd" clip-rule="evenodd" d="M13.2984 28.9895C13.2984 19.2265 15.1675 13.2186 31 13.2186C46.8325 13.2186 48.7016 19.2265 48.7016 28.9895C48.7016 38.7525 46.8325 44.7605 31 44.7605L28.1414 44.6532L22.3141 51.4122C21.8743 51.8413 21.4346 51.5195 21.4346 51.0903V43.6876C20.7749 43.6876 18.0262 42.4002 17.2565 41.6492C14.8377 39.1816 13.2984 37.3578 13.2984 28.9895ZM10 28.9895C10 15.4716 16.0471 10 31 10C45.9529 10 52 15.4716 52 28.9895C52 42.5075 45.9529 47.979 31 47.979C29.9005 47.979 29.0209 47.979 27.4817 47.7645L23.3037 52.3778C22.534 53.236 20.2251 53.5579 20.2251 50.983V46.4771C19.5654 46.4771 18.0262 45.8333 15.9372 44.5459C13.8482 43.1512 10 39.8254 10 28.9895ZM34.5183 33.4955C35.255 32.5621 36.1346 32.4227 37.1571 33.0664L41.1152 35.9631C41.6979 36.6819 41.445 37.6796 40.3456 38.9671C39.2461 40.2545 38.2236 40.7909 37.267 40.5764C33.3859 39.7181 29.6476 37.5724 26.0524 34.1392C22.4571 30.7061 20.2251 26.9833 19.3455 22.9815C19.3455 21.5546 20.2581 20.3316 22.0942 19.3338C23.0508 18.6901 23.8534 18.8725 24.5131 19.8703L27.2618 23.6253C27.7016 24.4835 27.4487 25.2667 26.4921 25.9855C22.2042 27.5948 32.0995 38.0015 34.5183 33.4955Z" fill="white"/>
</g>
<defs>
<clipPath id="clip0_6_265">
<rect width="42" height="43" fill="white" transform="translate(10 10)"/>
</clipPath>
</defs>
</svg>
